# xmcd
#
# Track frame offsets: 
#        150
#        16655
#        33331
#        51237
#        66200
#        83862
#        102705
#        114166
#        130599
#        150485
#        167545
#        183266
#        202472
#        218041
#        233607
#        256572
#        272372
#        288876
#        315532
#        332065
#
# Disc length: 4660 seconds
#
# Revision: 0
# Processed by: cddbd v1.5.2PL0 Copyright (c) Steve Scherf et al.
# Submitted via: ExactAudioCopy v0.99pb4
#
DISCID=06123214
DTITLE=Various Artist - CD POOL - Hits - October 2010
DYEAR=2010
DGENRE=Pop
TTITLE0=Tinie Tempah ft. Eric Turner - Written In The Stars
TTITLE1=Cee Lo Green - Forget You
TTITLE2=Robbie Williams and Gary Barlow - Shame
TTITLE3=The Ting Tings - Hands
TTITLE4=Charice ft. Iyaz - Pyramid
TTITLE5=The Script - For The First Time
TTITLE6=Pixie Lott - Broken Arrow
TTITLE7=Bruno Mars - Just The Way You Are
TTITLE8=Mark Ronson and The Business Intl - The Bike Song
TTITLE9=The Wombats - Tokyo (Vampires and Wolves)
TTITLE10=Maroon 5 - Misery
TTITLE11=Arcade Fire - Ready To Start
TTITLE12=Manic Street Preachers - (It's Not War) Just The End Of Love
TTITLE13=Kings Of Leon - Radioactive
TTITLE14=Die Antwoord - Enter The Ninja
TTITLE15=N-Dubz - Best Behaviour
TTITLE16=Pendulum - The Island
TTITLE17=Magnetic Man ft. Katy B - Perfect Stranger
TTITLE18=KT Tunstall (Still A) - Weirdo
TTITLE19=Status Quo with the Corps Of Army Music Choir - In The Army N
TTITLE19=ow 2010
EXTD=
EXTT0=
EXTT1=
EXTT2=
EXTT3=
EXTT4=
EXTT5=
EXTT6=
EXTT7=
EXTT8=
EXTT9=
EXTT10=
EXTT11=
EXTT12=
EXTT13=
EXTT14=
EXTT15=
EXTT16=
EXTT17=
EXTT18=
EXTT19=
PLAYORDER=
